<svg width="25" height="24" viewBox="0 0 25 24" fill="none" xmlns="http://www.w3.org/2000/svg">
<g clip-path="url(#clip0_816_10792)">
<path d="M14.8632 13.2805H10.9707C10.6714 13.2805 10.4194 13.5332 10.4194 13.8475C10.4194 14.1475 10.6714 14.3987 10.9707 14.3987H14.8632C15.1789 14.3987 15.4302 14.1467 15.4302 13.8475C15.4302 13.5325 15.1782 13.2805 14.8632 13.2805Z" fill="white"/>
<path d="M10.9707 9.95571H13.0827C13.3977 9.95571 13.6339 9.70371 13.6339 9.38871C13.6339 9.08946 13.3977 8.83746 13.0827 8.83746H10.9707C10.6714 8.83746 10.4194 9.08946 10.4194 9.38871C10.4194 9.70371 10.6714 9.95571 10.9707 9.95571Z" fill="white"/>
<path d="M12.8335 0.000976562C6.20575 0.000976562 0.833496 5.37398 0.833496 12.001C0.833496 18.628 6.2065 24.001 12.8335 24.001C19.4612 24.001 24.8335 18.628 24.8335 12.001C24.8335 5.37398 19.4612 0.000976562 12.8335 0.000976562ZM18.7712 13.8475C18.7712 15.6752 17.2585 17.188 15.4307 17.188H10.9712C9.1435 17.188 7.6465 15.6752 7.6465 13.8475V9.38798C7.6465 7.56023 9.1435 6.06323 10.9712 6.06323H12.6415C14.7842 6.06323 16.534 7.81223 16.534 9.95498C16.534 10.2542 16.7867 10.5062 17.101 10.5062H17.6522C18.2665 10.5062 18.7712 11.0102 18.7712 11.6252V13.8475Z" fill="white"/>
</g>
<defs>
<clipPath id="clip0_816_10792">
<rect width="24" height="24" fill="white" transform="translate(0.833496 0.000976562)"/>
</clipPath>
</defs>
</svg>
