<svg width="24" height="24" viewBox="0 0 24 24" fill="none" xmlns="http://www.w3.org/2000/svg">
<g clip-path="url(#clip0_816_10801)">
<path fill-rule="evenodd" clip-rule="evenodd" d="M12 0.000976562C18.6277 0.000976562 24 5.37332 24 12.001C24 18.6286 18.6277 24.001 12 24.001C5.37234 24.001 0 18.6286 0 12.001C0 5.37332 5.37234 0.000976562 12 0.000976562ZM6.65438 17.5702H8.95266V10.1447H6.65438V17.5702ZM7.7925 9.17254C8.54344 9.17254 9.15188 8.55848 9.15188 7.80191C9.15188 7.04535 8.54344 6.43176 7.7925 6.43176C7.04156 6.43176 6.43359 7.04535 6.43359 7.80191C6.43359 8.55848 7.04156 9.17254 7.7925 9.17254ZM12.6267 13.6725C12.6267 12.6286 13.1077 12.0061 14.0278 12.0061C14.8725 12.0061 15.2789 12.6033 15.2789 13.6725C15.2789 14.7418 15.2789 17.5702 15.2789 17.5702H17.5664C17.5664 17.5702 17.5664 14.8575 17.5664 12.8686C17.5664 10.8797 16.4391 9.91785 14.8645 9.91785C13.2895 9.91785 12.6267 11.145 12.6267 11.145V10.1447H10.4222V17.5702H12.6267C12.6267 17.5702 12.6267 14.8163 12.6267 13.6725Z" fill="white"/>
</g>
<defs>
<clipPath id="clip0_816_10801">
<rect width="24" height="24" fill="white" transform="translate(0 0.000976562)"/>
</clipPath>
</defs>
</svg>
