<svg width="24" height="24" viewBox="0 0 24 24" fill="none" xmlns="http://www.w3.org/2000/svg">
<g clip-path="url(#clip0_816_10773)">
<path d="M10.3726 14.4452L14.4466 12.001L10.3726 9.5567V14.4452Z" fill="white"/>
<path d="M12 0.000976562C5.373 0.000976562 0 5.37323 0 12.001C0 18.6287 5.373 24.001 12 24.001C18.627 24.001 24 18.628 24 12.001C24 5.37398 18.627 0.000976562 12 0.000976562ZM18.516 12.5267C18.516 13.6517 18.3855 14.7767 18.3855 14.7767C18.3855 14.7767 18.258 15.7352 17.868 16.156C17.3722 16.7095 16.8172 16.7125 16.5623 16.7455C14.7382 16.885 12 16.8895 12 16.8895C12 16.8895 8.6115 16.8565 7.569 16.75C7.27875 16.6922 6.6285 16.7087 6.132 16.156C5.74125 15.7345 5.6145 14.7767 5.6145 14.7767C5.6145 14.7767 5.484 13.6525 5.484 12.5267V11.4722C5.484 10.3472 5.6145 9.22298 5.6145 9.22298C5.6145 9.22298 5.742 8.26448 6.132 7.84223C6.62775 7.28798 7.18275 7.28498 7.43775 7.25348C9.261 7.11248 11.997 7.11248 11.997 7.11248H12.003C12.003 7.11248 14.739 7.11248 16.5623 7.25348C16.8165 7.28498 17.3722 7.28798 17.868 7.84148C18.2587 8.26373 18.3855 9.22223 18.3855 9.22223C18.3855 9.22223 18.516 10.3472 18.516 11.4722V12.5267Z" fill="white"/>
</g>
<defs>
<clipPath id="clip0_816_10773">
<rect width="24" height="24" fill="white" transform="translate(0 0.000976562)"/>
</clipPath>
</defs>
</svg>
