<svg width="25" height="24" viewBox="0 0 25 24" fill="none" xmlns="http://www.w3.org/2000/svg">
<g clip-path="url(#clip0_816_10780)">
<path d="M12.1665 0.000976562C5.53908 0.000976562 0.166504 5.37356 0.166504 12.001C0.166504 18.6284 5.53908 24.001 12.1665 24.001C18.7939 24.001 24.1665 18.6284 24.1665 12.001C24.1665 5.37356 18.7939 0.000976562 12.1665 0.000976562ZM15.3348 7.19291C15.3348 7.19291 14.1069 7.09616 13.6232 7.27476C12.8237 7.57007 12.8047 8.26073 12.8047 8.91932V10.2644H15.2492L14.892 12.8372H12.8047V19.1885H10.0438V12.8372H7.74825V10.2644H10.0439V8.08223C10.0439 5.77166 11.8224 4.93452 12.8828 4.83407C13.9432 4.73362 15.3348 5.03498 15.3348 5.03498V7.19291Z" fill="white"/>
</g>
<defs>
<clipPath id="clip0_816_10780">
<rect width="24" height="24" fill="white" transform="translate(0.166504 0.000976562)"/>
</clipPath>
</defs>
</svg>
