<svg width="25" height="24" viewBox="0 0 25 24" fill="none" xmlns="http://www.w3.org/2000/svg">
<g clip-path="url(#clip0_816_10782)">
<path fill-rule="evenodd" clip-rule="evenodd" d="M12.3335 0.000976562C18.9565 0.000976562 24.3335 5.37801 24.3335 12.001C24.3335 18.6239 18.9565 24.001 12.3335 24.001C5.71053 24.001 0.333496 18.6239 0.333496 12.001C0.333496 5.37801 5.71053 0.000976562 12.3335 0.000976562ZM12.3335 4.50098C10.2966 4.50098 10.0412 4.5096 9.24125 4.54612C8.44296 4.58254 7.89776 4.70934 7.42067 4.89473C6.9275 5.0864 6.50923 5.34285 6.09228 5.7598C5.67532 6.17676 5.41887 6.59502 5.2272 7.0882C5.04181 7.56524 4.91506 8.11045 4.87859 8.90873C4.84212 9.7087 4.8335 9.96412 4.8335 12.001C4.8335 14.0378 4.84212 14.2933 4.87859 15.0932C4.91506 15.8915 5.04181 16.4367 5.2272 16.9138C5.41887 17.4069 5.67532 17.8252 6.09228 18.2422C6.50923 18.6591 6.9275 18.9156 7.42067 19.1073C7.89776 19.2926 8.44296 19.4194 9.24125 19.4558C10.0412 19.4924 10.2966 19.501 12.3335 19.501C14.3704 19.501 14.6258 19.4924 15.4257 19.4558C16.224 19.4194 16.7692 19.2926 17.2463 19.1073C17.7394 18.9156 18.1577 18.6591 18.5747 18.2422C18.9917 17.8252 19.2481 17.4069 19.4398 16.9138C19.6251 16.4367 19.7519 15.8915 19.7884 15.0932C19.8249 14.2933 19.8335 14.0378 19.8335 12.001C19.8335 9.96412 19.8249 9.7087 19.7884 8.90873C19.7519 8.11045 19.6251 7.56524 19.4398 7.0882C19.2481 6.59502 18.9917 6.17676 18.5747 5.7598C18.1577 5.34285 17.7394 5.0864 17.2463 4.89473C16.7692 4.70934 16.224 4.58254 15.4257 4.54612C14.6258 4.5096 14.3704 4.50098 12.3335 4.50098ZM12.3335 5.85234C14.3361 5.85234 14.5733 5.85998 15.3642 5.89607C16.0954 5.92945 16.4925 6.0516 16.7568 6.1543C17.1069 6.29034 17.3567 6.4529 17.6191 6.71535C17.8816 6.97776 18.0441 7.22765 18.1802 7.57771C18.2829 7.84199 18.4051 8.23907 18.4384 8.97032C18.4745 9.76119 18.4821 9.99838 18.4821 12.001C18.4821 14.0036 18.4745 14.2408 18.4384 15.0316C18.4051 15.7629 18.2829 16.16 18.1802 16.4242C18.0441 16.7744 17.8816 17.0242 17.6191 17.2866C17.3567 17.5491 17.1069 17.7116 16.7568 17.8476C16.4925 17.9504 16.0954 18.0726 15.3642 18.1059C14.5734 18.142 14.3362 18.1496 12.3335 18.1496C10.3308 18.1496 10.0936 18.142 9.30284 18.1059C8.57159 18.0726 8.17451 17.9504 7.91023 17.8476C7.56012 17.7116 7.31028 17.5491 7.04782 17.2866C6.78537 17.0242 6.62286 16.7744 6.48682 16.4242C6.38412 16.16 6.26192 15.7629 6.22854 15.0316C6.19245 14.2408 6.18486 14.0036 6.18486 12.001C6.18486 9.99838 6.19245 9.76119 6.22854 8.97032C6.26192 8.23907 6.38412 7.84199 6.48682 7.57771C6.62286 7.22765 6.78537 6.97776 7.04782 6.71535C7.31028 6.4529 7.56012 6.29034 7.91023 6.1543C8.17451 6.0516 8.57159 5.92945 9.30284 5.89607C10.0937 5.85998 10.3309 5.85234 12.3335 5.85234ZM12.3335 8.14963C10.2064 8.14963 8.48215 9.87393 8.48215 12.001C8.48215 14.128 10.2064 15.8523 12.3335 15.8523C14.4605 15.8523 16.1848 14.128 16.1848 12.001C16.1848 9.87393 14.4605 8.14963 12.3335 8.14963ZM12.3335 14.501C10.9528 14.501 9.83351 13.3817 9.83351 12.001C9.83351 10.6203 10.9528 9.50099 12.3335 9.50099C13.7142 9.50099 14.8335 10.6203 14.8335 12.001C14.8335 13.3817 13.7142 14.501 12.3335 14.501ZM17.237 7.99748C17.237 8.49454 16.8341 8.89743 16.337 8.89743C15.84 8.89743 15.437 8.49454 15.437 7.99748C15.437 7.50041 15.84 7.09748 16.337 7.09748C16.8341 7.09748 17.237 7.50041 17.237 7.99748Z" fill="white"/>
</g>
<defs>
<clipPath id="clip0_816_10782">
<rect width="24" height="24" fill="white" transform="translate(0.333496 0.000976562)"/>
</clipPath>
</defs>
</svg>
